<?xml version="1.0" encoding="UTF-8" standalone="no"?>
<!-- Created with Inkscape (http://www.inkscape.org/) -->

<svg
   width="48"
   height="48"
   viewBox="0 0 48 48"
   version="1.1"
   id="svg1"
   inkscape:version="1.3.2 (091e20ef0f, 2023-11-25, custom)"
   sodipodi:docname="Cart.svg"
   xmlns:inkscape="http://www.inkscape.org/namespaces/inkscape"
   xmlns:sodipodi="http://sodipodi.sourceforge.net/DTD/sodipodi-0.dtd"
   xmlns="http://www.w3.org/2000/svg"
   xmlns:svg="http://www.w3.org/2000/svg">
  <sodipodi:namedview
     id="namedview1"
     pagecolor="#505050"
     bordercolor="#eeeeee"
     borderopacity="1"
     inkscape:showpageshadow="0"
     inkscape:pageopacity="0"
     inkscape:pagecheckerboard="0"
     inkscape:deskcolor="#505050"
     inkscape:document-units="px"
     inkscape:zoom="8"
     inkscape:cx="13.3125"
     inkscape:cy="22.875"
     inkscape:window-width="1920"
     inkscape:window-height="1018"
     inkscape:window-x="0"
     inkscape:window-y="0"
     inkscape:window-maximized="1"
     inkscape:current-layer="layer1" />
  <defs
     id="defs1" />
  <g
     inkscape:label="Layer 1"
     inkscape:groupmode="layer"
     id="layer1">
    <path
       id="path29"
       style="fill:#ffffff;stroke-width:0"
       inkscape:label="Cart"
       d="m 2.0347293,5.3554686 c -1.12732179,0 -2.03515622239,1.2521301 -2.03515622239,2.8085941 0,1.556464 0.90783443239,2.8125003 2.03515622239,2.8125003 h 3.4296876 l 3.9375,14.697265 v 6.908203 c 0,1.556464 0.9078321,2.808594 2.0351561,2.808594 h 2.871094 24.828125 c 1.127321,0 2.035156,-1.25213 2.035156,-2.808594 0,-1.556462 -0.907835,-2.808593 -2.035156,-2.808593 H 15.023011 v -2.205079 h 28.476562 c 0.357595,0 0.689054,-0.137519 0.980469,-0.359374 0.410949,-0.236965 0.712281,-0.579384 0.828125,-1.011719 l 2.640625,-9.853516 c 0.291773,-1.088908 -0.682118,-2.292469 -2.185547,-2.695312 -0.09395,-0.02519 -0.188007,-0.03491 -0.28125,-0.05274 -0.146366,-0.02797 -0.290702,-0.04811 -0.433594,-0.05859 -0.183883,-0.01354 -0.362892,-0.01405 -0.537109,0 H 11.970276 L 10.144104,6.7285157 C 9.9186469,5.8870947 9.0014376,5.3707887 7.90387,5.3632811 7.87233,5.3612711 7.8400668,5.3554686 7.8081669,5.3554686 Z M 14.183167,21.947266 h 0.03906 l 0.0098,0.03906 c -0.01693,-0.01272 -0.03146,-0.02666 -0.04883,-0.03906 z m 0.83789,3.125 c 8.71e-4,0.0023 0.0018,0.0051 0.002,0.0078 v 0.07422 c -4.8e-4,0.0391 -0.0025,0.07813 -0.0059,0.117188 0.0058,-0.06656 0.0065,-0.132615 0.0039,-0.199219 z m 1.259766,11.445312 a 3.0195083,3.0627738 0 0 0 -3.021484,3.0625 3.0195083,3.0627738 0 0 0 3.021484,3.064453 3.0195083,3.0627738 0 0 0 3.017578,-3.064453 3.0195083,3.0627738 0 0 0 -3.017578,-3.0625 z m 17.769531,0 a 3.0195083,3.0627738 0 0 0 -3.019531,3.0625 3.0195083,3.0627738 0 0 0 3.019531,3.064453 3.0195083,3.0627738 0 0 0 3.017578,-3.064453 3.0195083,3.0627738 0 0 0 -3.017578,-3.0625 z" />
  </g>
</svg>
