<?xml version="1.0" encoding="UTF-8" standalone="no"?>
<!-- Created with Inkscape (http://www.inkscape.org/) -->

<svg
   width="512"
   height="512"
   viewBox="0 0 135.46666 135.46667"
   version="1.1"
   id="svg1"
   inkscape:version="1.3.2 (091e20ef0f, 2023-11-25)"
   sodipodi:docname="Delete.svg"
   xmlns:inkscape="http://www.inkscape.org/namespaces/inkscape"
   xmlns:sodipodi="http://sodipodi.sourceforge.net/DTD/sodipodi-0.dtd"
   xmlns="http://www.w3.org/2000/svg"
   xmlns:svg="http://www.w3.org/2000/svg">
  <sodipodi:namedview
     id="namedview1"
     pagecolor="#ffffff"
     bordercolor="#000000"
     borderopacity="0.25"
     inkscape:showpageshadow="2"
     inkscape:pageopacity="0.0"
     inkscape:pagecheckerboard="0"
     inkscape:deskcolor="#d1d1d1"
     inkscape:document-units="mm"
     inkscape:zoom="1.4783331"
     inkscape:cx="212.73961"
     inkscape:cy="362.57052"
     inkscape:window-width="1920"
     inkscape:window-height="1020"
     inkscape:window-x="0"
     inkscape:window-y="0"
     inkscape:window-maximized="1"
     inkscape:current-layer="layer1" />
  <defs
     id="defs1" />
  <g
     inkscape:label="Layer 1"
     inkscape:groupmode="layer"
     id="layer1">
    <path
       id="path3"
       style="fill:#f44f4f;stroke-width:7.25001;stroke-linejoin:round;paint-order:stroke fill markers"
       d="m 48.257519,16.378586 c -1.084958,0 -2.069682,0.522393 -2.806031,1.378727 -0.825823,0.731269 -1.331185,1.694853 -1.331185,2.757971 0,0.151338 0.01173,0.300479 0.03152,0.447518 -0.01991,0.208515 -0.03152,0.420113 -0.03152,0.63562 v 6.107638 c 0,0.06297 0.0024,0.125172 0.0041,0.187585 H 25.450642 c -6.647986,0 -11.999784,4.781481 -11.999784,10.720793 0,5.341998 4.334235,9.734742 10.042281,10.566797 v 66.495685 c 0,1.88975 1.78376,3.41116 3.999756,3.41116 h 80.480875 c 2.216,0 3.99976,-1.52141 3.99976,-3.41116 V 49.181235 c 5.70804,-0.832055 10.04228,-5.224799 10.04228,-10.566797 0,-5.939312 -5.35179,-10.720793 -11.99979,-10.720793 H 91.342227 c 0.0017,-0.06241 0.0041,-0.124619 0.0041,-0.187585 v -6.107638 c 0,-0.215507 -0.01161,-0.427105 -0.03152,-0.63562 0.01979,-0.147039 0.03152,-0.29618 0.03152,-0.447518 0,-1.063118 -0.505361,-2.026702 -1.331185,-2.757971 -0.736348,-0.856334 -1.721072,-1.378727 -2.80603,-1.378727 -0.154635,0 -0.306682,0.01138 -0.45682,0.03204 -0.205609,-0.01935 -0.413927,-0.03204 -0.626318,-0.03204 H 49.340657 c -0.212391,0 -0.420709,0.01269 -0.626319,0.03204 -0.150137,-0.02066 -0.302185,-0.03204 -0.456819,-0.03204 z m 4.136698,8.273913 h 30.678231 v 3.053561 c 0,0.06297 0.0024,0.125172 0.0041,0.187585 H 52.390083 c 0.0017,-0.06241 0.0041,-0.124619 0.0041,-0.187585 z M 40.049234,59.920114 c 3.834241,0 6.921025,2.327962 6.921025,5.219836 v 36.78587 c 0,2.89188 -3.086784,5.22035 -6.921025,5.22035 -3.834241,0 -6.921025,-2.32847 -6.921025,-5.22035 V 65.13995 c 0,-2.891874 3.086784,-5.219836 6.921025,-5.219836 z m 27.684098,0 c 3.834241,0 6.921025,2.327962 6.921025,5.219836 v 36.78587 c 0,2.89188 -3.086784,5.22035 -6.921025,5.22035 -3.83424,0 -6.921024,-2.32847 -6.921024,-5.22035 V 65.13995 c 0,-2.891874 3.086784,-5.219836 6.921024,-5.219836 z m 27.684099,0 c 3.83424,0 6.921029,2.327962 6.921029,5.219836 v 36.78587 c 0,2.89188 -3.086789,5.22035 -6.921029,5.22035 -3.834242,0 -6.921025,-2.32847 -6.921025,-5.22035 V 65.13995 c 0,-2.891874 3.086783,-5.219836 6.921025,-5.219836 z" />
  </g>
</svg>
