<?xml version="1.0" encoding="UTF-8" standalone="no"?>
<!-- Created with Inkscape (http://www.inkscape.org/) -->

<svg
   width="32"
   height="32"
   viewBox="0 0 32 32"
   version="1.1"
   id="svg1"
   xml:space="preserve"
   inkscape:version="1.3.2 (091e20ef0f, 2023-11-25, custom)"
   sodipodi:docname="Edit.svg"
   xmlns:inkscape="http://www.inkscape.org/namespaces/inkscape"
   xmlns:sodipodi="http://sodipodi.sourceforge.net/DTD/sodipodi-0.dtd"
   xmlns="http://www.w3.org/2000/svg"
   xmlns:svg="http://www.w3.org/2000/svg"><sodipodi:namedview
     id="namedview1"
     pagecolor="#505050"
     bordercolor="#eeeeee"
     borderopacity="1"
     inkscape:showpageshadow="0"
     inkscape:pageopacity="0"
     inkscape:pagecheckerboard="0"
     inkscape:deskcolor="#505050"
     inkscape:document-units="px"
     inkscape:zoom="5.6568545"
     inkscape:cx="-44.459337"
     inkscape:cy="25.986173"
     inkscape:window-width="1920"
     inkscape:window-height="1018"
     inkscape:window-x="0"
     inkscape:window-y="0"
     inkscape:window-maximized="1"
     inkscape:current-layer="layer1" /><defs
     id="defs1" /><g
     inkscape:label="Layer 1"
     inkscape:groupmode="layer"
     id="layer1"><path
       d="m 7.0697174,1.8746717 c -1.7903363,0 -3.2295248,1.4418117 -3.2295248,3.2321459 V 23.818138 c 0,0.328125 0.048828,0.643117 0.1389325,0.941071 L 5.8822378,22.989785 C 5.7711093,22.662304 5.7092275,22.312463 5.7092275,21.946482 V 6.9758525 c 0,-1.7903341 1.4418115,-3.2295244 3.2321463,-3.2295246 H 23.909382 c 1.790334,0 3.232145,1.4391905 3.232145,3.2295246 V 21.946482 c 0,1.790333 -1.441811,3.232146 -3.232145,3.232146 H 9.2769088 L 7.2636982,27.047663 H 25.781038 c 1.790335,0 3.232145,-1.439191 3.232145,-3.229525 V 5.1068176 c 0,-1.7903342 -1.44181,-3.2321459 -3.232145,-3.2321459 z"
       style="fill:#ffffff;stroke-width:0;stroke-linecap:round;stroke-linejoin:round;fill-opacity:1"
       id="path13" /><path
       id="rect13"
       style="fill:#ffffff;fill-opacity:1;stroke:#000000;stroke-width:0;stroke-linecap:round;stroke-linejoin:miter;stroke-opacity:1"
       d="m 23.01311,8.4142657 c -0.492723,-0.4927226 -1.286092,-0.4927226 -1.778815,4e-7 L 5.8201954,23.828365 c -0.03799,0.03799 -0.07283,0.07748 -0.104961,0.118771 -0.001,7.56e-4 -0.0017,0.002 -0.0028,0.0028 -0.4715,0.347189 -2.398375,2.981171 -2.745564,3.45267 -0.347187,0.4715 -2.30501699,3.114293 -2.18070599,3.238605 0.124313,0.124312 2.76710499,-1.833519 3.23860499,-2.180706 0.4715,-0.347188 3.105482,-2.274063 3.45267,-2.745564 7.66e-4,-0.001 0.002,-0.0017 0.0028,-0.0028 0.04129,-0.03213 0.08078,-0.06697 0.118772,-0.10496 L 23.01311,10.193082 c 0.492723,-0.4927234 0.492723,-1.286093 0,-1.7788163 z" /></g></svg>
